<mxfile host="app.diagrams.net" modified="2023-07-27T16:46:21.759Z" agent="Mozilla/5.0 (Windows NT 10.0; Win64; x64) AppleWebKit/537.36 (KHTML, like Gecko) Chrome/114.0.0.0 Safari/537.36" etag="8bI6wDkFilLvldtyTV5X" version="21.6.5" type="github">
  <diagram name="Page-1" id="0783ab3e-0a74-02c8-0abd-f7b4e66b4bec">
    <mxGraphModel dx="2529" dy="896" grid="1" gridSize="10" guides="1" tooltips="1" connect="1" arrows="1" fold="1" page="1" pageScale="1" pageWidth="850" pageHeight="1100" background="none" math="0" shadow="0">
      <root>
        <mxCell id="0" />
        <mxCell id="1" parent="0" />
        <mxCell id="mxhaj5c7SGz6iYDPT9kv-5" value="" style="edgeStyle=orthogonalEdgeStyle;rounded=0;orthogonalLoop=1;jettySize=auto;html=1;" edge="1" parent="1" source="mxhaj5c7SGz6iYDPT9kv-1" target="mxhaj5c7SGz6iYDPT9kv-2">
          <mxGeometry relative="1" as="geometry" />
        </mxCell>
        <mxCell id="mxhaj5c7SGz6iYDPT9kv-1" value="" style="ellipse;fillColor=strokeColor;html=1;" vertex="1" parent="1">
          <mxGeometry x="336.5" y="10" width="30" height="30" as="geometry" />
        </mxCell>
        <mxCell id="mxhaj5c7SGz6iYDPT9kv-2" value="Staff/Admin Select" style="rounded=1;whiteSpace=wrap;html=1;arcSize=40;fontColor=#000000;fillColor=#ffffc0;strokeColor=#ff0000;" vertex="1" parent="1">
          <mxGeometry x="291.5" y="80" width="120" height="40" as="geometry" />
        </mxCell>
        <mxCell id="mxhaj5c7SGz6iYDPT9kv-3" value="" style="edgeStyle=orthogonalEdgeStyle;html=1;verticalAlign=bottom;endArrow=open;endSize=8;strokeColor=#ff0000;rounded=0;entryX=0.5;entryY=0;entryDx=0;entryDy=0;" edge="1" source="mxhaj5c7SGz6iYDPT9kv-2" parent="1" target="mxhaj5c7SGz6iYDPT9kv-12">
          <mxGeometry relative="1" as="geometry">
            <mxPoint x="425" y="190" as="targetPoint" />
          </mxGeometry>
        </mxCell>
        <mxCell id="mxhaj5c7SGz6iYDPT9kv-12" value="" style="whiteSpace=wrap;html=1;rounded=0;shadow=0;comic=0;labelBackgroundColor=none;strokeWidth=1;fillColor=#000000;fontFamily=Verdana;fontSize=12;align=center;rotation=0;" vertex="1" parent="1">
          <mxGeometry x="278" y="190" width="147" height="10" as="geometry" />
        </mxCell>
        <mxCell id="mxhaj5c7SGz6iYDPT9kv-13" value="Search And Find Driver" style="rounded=1;whiteSpace=wrap;html=1;arcSize=40;fontColor=#000000;fillColor=#ffffc0;strokeColor=#ff0000;" vertex="1" parent="1">
          <mxGeometry x="690" y="280" width="120" height="40" as="geometry" />
        </mxCell>
        <mxCell id="mxhaj5c7SGz6iYDPT9kv-15" value="Delete Driver" style="rounded=1;whiteSpace=wrap;html=1;arcSize=40;fontColor=#000000;fillColor=#ffffc0;strokeColor=#ff0000;" vertex="1" parent="1">
          <mxGeometry x="450" y="280" width="120" height="40" as="geometry" />
        </mxCell>
        <mxCell id="mxhaj5c7SGz6iYDPT9kv-17" value="Modify Driver" style="rounded=1;whiteSpace=wrap;html=1;arcSize=40;fontColor=#000000;fillColor=#ffffc0;strokeColor=#ff0000;" vertex="1" parent="1">
          <mxGeometry x="150" y="280" width="120" height="40" as="geometry" />
        </mxCell>
        <mxCell id="mxhaj5c7SGz6iYDPT9kv-19" value="Add New Driver" style="rounded=1;whiteSpace=wrap;html=1;arcSize=40;fontColor=#000000;fillColor=#ffffc0;strokeColor=#ff0000;" vertex="1" parent="1">
          <mxGeometry x="-160" y="280" width="120" height="40" as="geometry" />
        </mxCell>
        <mxCell id="mxhaj5c7SGz6iYDPT9kv-21" value="" style="endArrow=classic;html=1;rounded=0;" edge="1" parent="1" source="mxhaj5c7SGz6iYDPT9kv-12" target="mxhaj5c7SGz6iYDPT9kv-13">
          <mxGeometry width="50" height="50" relative="1" as="geometry">
            <mxPoint x="400" y="390" as="sourcePoint" />
            <mxPoint x="450" y="340" as="targetPoint" />
          </mxGeometry>
        </mxCell>
        <mxCell id="mxhaj5c7SGz6iYDPT9kv-22" value="" style="endArrow=classic;html=1;rounded=0;entryX=0.5;entryY=0;entryDx=0;entryDy=0;" edge="1" parent="1" source="mxhaj5c7SGz6iYDPT9kv-12" target="mxhaj5c7SGz6iYDPT9kv-15">
          <mxGeometry width="50" height="50" relative="1" as="geometry">
            <mxPoint x="400" y="390" as="sourcePoint" />
            <mxPoint x="450" y="340" as="targetPoint" />
          </mxGeometry>
        </mxCell>
        <mxCell id="mxhaj5c7SGz6iYDPT9kv-23" value="" style="endArrow=classic;html=1;rounded=0;entryX=0.5;entryY=0;entryDx=0;entryDy=0;" edge="1" parent="1" source="mxhaj5c7SGz6iYDPT9kv-12" target="mxhaj5c7SGz6iYDPT9kv-17">
          <mxGeometry width="50" height="50" relative="1" as="geometry">
            <mxPoint x="400" y="390" as="sourcePoint" />
            <mxPoint x="450" y="340" as="targetPoint" />
          </mxGeometry>
        </mxCell>
        <mxCell id="mxhaj5c7SGz6iYDPT9kv-24" value="" style="endArrow=classic;html=1;rounded=0;entryX=0.5;entryY=0;entryDx=0;entryDy=0;" edge="1" parent="1" source="mxhaj5c7SGz6iYDPT9kv-12" target="mxhaj5c7SGz6iYDPT9kv-19">
          <mxGeometry width="50" height="50" relative="1" as="geometry">
            <mxPoint x="400" y="390" as="sourcePoint" />
            <mxPoint x="450" y="340" as="targetPoint" />
          </mxGeometry>
        </mxCell>
        <mxCell id="mxhaj5c7SGz6iYDPT9kv-25" value="Driver" style="html=1;whiteSpace=wrap;" vertex="1" parent="1">
          <mxGeometry x="-220" y="382.5" width="110" height="50" as="geometry" />
        </mxCell>
        <mxCell id="mxhaj5c7SGz6iYDPT9kv-26" value="" style="endArrow=classic;html=1;rounded=0;entryX=0.5;entryY=0;entryDx=0;entryDy=0;exitX=0.5;exitY=1;exitDx=0;exitDy=0;" edge="1" parent="1" target="mxhaj5c7SGz6iYDPT9kv-25" source="mxhaj5c7SGz6iYDPT9kv-19">
          <mxGeometry width="50" height="50" relative="1" as="geometry">
            <mxPoint x="20" y="350" as="sourcePoint" />
            <mxPoint x="145" y="300" as="targetPoint" />
          </mxGeometry>
        </mxCell>
        <mxCell id="mxhaj5c7SGz6iYDPT9kv-27" value="Add All Driver&#39;s attributes&amp;nbsp;" style="shape=note2;boundedLbl=1;whiteSpace=wrap;html=1;size=25;verticalAlign=top;align=center;" vertex="1" parent="1">
          <mxGeometry x="-60" y="375" width="105" height="65" as="geometry" />
        </mxCell>
        <mxCell id="mxhaj5c7SGz6iYDPT9kv-28" value="" style="endArrow=none;dashed=1;html=1;dashPattern=1 3;strokeWidth=2;rounded=0;entryX=0;entryY=0;entryDx=47.5;entryDy=0;entryPerimeter=0;exitX=0.5;exitY=1;exitDx=0;exitDy=0;" edge="1" parent="1" target="mxhaj5c7SGz6iYDPT9kv-27" source="mxhaj5c7SGz6iYDPT9kv-19">
          <mxGeometry width="50" height="50" relative="1" as="geometry">
            <mxPoint x="30" y="320" as="sourcePoint" />
            <mxPoint x="145" y="390" as="targetPoint" />
          </mxGeometry>
        </mxCell>
        <mxCell id="mxhaj5c7SGz6iYDPT9kv-29" value="" style="endArrow=none;dashed=1;html=1;dashPattern=1 3;strokeWidth=2;rounded=0;entryX=0;entryY=0.5;entryDx=0;entryDy=0;entryPerimeter=0;exitX=1;exitY=0.5;exitDx=0;exitDy=0;" edge="1" parent="1" source="mxhaj5c7SGz6iYDPT9kv-25" target="mxhaj5c7SGz6iYDPT9kv-27">
          <mxGeometry width="50" height="50" relative="1" as="geometry">
            <mxPoint x="95" y="440" as="sourcePoint" />
            <mxPoint x="145" y="390" as="targetPoint" />
          </mxGeometry>
        </mxCell>
        <mxCell id="mxhaj5c7SGz6iYDPT9kv-30" value="Driver" style="html=1;whiteSpace=wrap;" vertex="1" parent="1">
          <mxGeometry x="80" y="382.5" width="110" height="50" as="geometry" />
        </mxCell>
        <mxCell id="mxhaj5c7SGz6iYDPT9kv-31" value="" style="endArrow=classic;html=1;rounded=0;entryX=0.5;entryY=0;entryDx=0;entryDy=0;exitX=0.5;exitY=1;exitDx=0;exitDy=0;" edge="1" parent="1" target="mxhaj5c7SGz6iYDPT9kv-30" source="mxhaj5c7SGz6iYDPT9kv-17">
          <mxGeometry width="50" height="50" relative="1" as="geometry">
            <mxPoint x="320" y="453" as="sourcePoint" />
            <mxPoint x="435" y="433" as="targetPoint" />
          </mxGeometry>
        </mxCell>
        <mxCell id="mxhaj5c7SGz6iYDPT9kv-32" value="&lt;font style=&quot;font-size: 10px;&quot;&gt;selected driver by id and able modification&lt;/font&gt;" style="shape=note2;boundedLbl=1;whiteSpace=wrap;html=1;size=25;verticalAlign=top;align=center;" vertex="1" parent="1">
          <mxGeometry x="240" y="367.5" width="105" height="65" as="geometry" />
        </mxCell>
        <mxCell id="mxhaj5c7SGz6iYDPT9kv-33" value="" style="endArrow=none;dashed=1;html=1;dashPattern=1 3;strokeWidth=2;rounded=0;entryX=0;entryY=0;entryDx=47.5;entryDy=0;entryPerimeter=0;exitX=0.5;exitY=1;exitDx=0;exitDy=0;" edge="1" parent="1" target="mxhaj5c7SGz6iYDPT9kv-32" source="mxhaj5c7SGz6iYDPT9kv-17">
          <mxGeometry width="50" height="50" relative="1" as="geometry">
            <mxPoint x="320" y="453" as="sourcePoint" />
            <mxPoint x="435" y="523" as="targetPoint" />
          </mxGeometry>
        </mxCell>
        <mxCell id="mxhaj5c7SGz6iYDPT9kv-34" value="" style="endArrow=none;dashed=1;html=1;dashPattern=1 3;strokeWidth=2;rounded=0;entryX=0;entryY=0.5;entryDx=0;entryDy=0;entryPerimeter=0;exitX=1;exitY=0.5;exitDx=0;exitDy=0;" edge="1" parent="1" source="mxhaj5c7SGz6iYDPT9kv-30" target="mxhaj5c7SGz6iYDPT9kv-32">
          <mxGeometry width="50" height="50" relative="1" as="geometry">
            <mxPoint x="385" y="573" as="sourcePoint" />
            <mxPoint x="435" y="523" as="targetPoint" />
          </mxGeometry>
        </mxCell>
        <mxCell id="mxhaj5c7SGz6iYDPT9kv-36" value="Driver" style="html=1;whiteSpace=wrap;" vertex="1" parent="1">
          <mxGeometry x="400" y="382.5" width="110" height="50" as="geometry" />
        </mxCell>
        <mxCell id="mxhaj5c7SGz6iYDPT9kv-37" value="" style="endArrow=classic;html=1;rounded=0;entryX=0.5;entryY=0;entryDx=0;entryDy=0;exitX=0.5;exitY=1;exitDx=0;exitDy=0;" edge="1" parent="1" target="mxhaj5c7SGz6iYDPT9kv-36" source="mxhaj5c7SGz6iYDPT9kv-15">
          <mxGeometry width="50" height="50" relative="1" as="geometry">
            <mxPoint x="520" y="440" as="sourcePoint" />
            <mxPoint x="635" y="420" as="targetPoint" />
          </mxGeometry>
        </mxCell>
        <mxCell id="mxhaj5c7SGz6iYDPT9kv-38" value="Delete Driver Info" style="shape=note2;boundedLbl=1;whiteSpace=wrap;html=1;size=25;verticalAlign=top;align=center;" vertex="1" parent="1">
          <mxGeometry x="570" y="375" width="105" height="65" as="geometry" />
        </mxCell>
        <mxCell id="mxhaj5c7SGz6iYDPT9kv-39" value="" style="endArrow=none;dashed=1;html=1;dashPattern=1 3;strokeWidth=2;rounded=0;entryX=0;entryY=0;entryDx=47.5;entryDy=0;entryPerimeter=0;exitX=0.5;exitY=1;exitDx=0;exitDy=0;" edge="1" parent="1" target="mxhaj5c7SGz6iYDPT9kv-38" source="mxhaj5c7SGz6iYDPT9kv-15">
          <mxGeometry width="50" height="50" relative="1" as="geometry">
            <mxPoint x="520" y="440" as="sourcePoint" />
            <mxPoint x="635" y="510" as="targetPoint" />
          </mxGeometry>
        </mxCell>
        <mxCell id="mxhaj5c7SGz6iYDPT9kv-40" value="" style="endArrow=none;dashed=1;html=1;dashPattern=1 3;strokeWidth=2;rounded=0;entryX=0;entryY=0.5;entryDx=0;entryDy=0;entryPerimeter=0;exitX=1;exitY=0.5;exitDx=0;exitDy=0;" edge="1" parent="1" source="mxhaj5c7SGz6iYDPT9kv-36" target="mxhaj5c7SGz6iYDPT9kv-38">
          <mxGeometry width="50" height="50" relative="1" as="geometry">
            <mxPoint x="655" y="462.5" as="sourcePoint" />
            <mxPoint x="705" y="412.5" as="targetPoint" />
          </mxGeometry>
        </mxCell>
        <mxCell id="mxhaj5c7SGz6iYDPT9kv-41" value="Driver" style="html=1;whiteSpace=wrap;" vertex="1" parent="1">
          <mxGeometry x="710" y="382.5" width="110" height="50" as="geometry" />
        </mxCell>
        <mxCell id="mxhaj5c7SGz6iYDPT9kv-42" value="" style="endArrow=classic;html=1;rounded=0;entryX=0.5;entryY=0;entryDx=0;entryDy=0;exitX=0.5;exitY=1;exitDx=0;exitDy=0;" edge="1" parent="1" target="mxhaj5c7SGz6iYDPT9kv-41" source="mxhaj5c7SGz6iYDPT9kv-13">
          <mxGeometry width="50" height="50" relative="1" as="geometry">
            <mxPoint x="630" y="570" as="sourcePoint" />
            <mxPoint x="745" y="550" as="targetPoint" />
          </mxGeometry>
        </mxCell>
        <mxCell id="mxhaj5c7SGz6iYDPT9kv-43" value="Find Driver to be modified or deleted" style="shape=note2;boundedLbl=1;whiteSpace=wrap;html=1;size=25;verticalAlign=top;align=center;" vertex="1" parent="1">
          <mxGeometry x="860" y="375" width="105" height="65" as="geometry" />
        </mxCell>
        <mxCell id="mxhaj5c7SGz6iYDPT9kv-44" value="" style="endArrow=none;dashed=1;html=1;dashPattern=1 3;strokeWidth=2;rounded=0;entryX=0;entryY=0;entryDx=47.5;entryDy=0;entryPerimeter=0;exitX=0.5;exitY=1;exitDx=0;exitDy=0;" edge="1" parent="1" target="mxhaj5c7SGz6iYDPT9kv-43" source="mxhaj5c7SGz6iYDPT9kv-13">
          <mxGeometry width="50" height="50" relative="1" as="geometry">
            <mxPoint x="630" y="570" as="sourcePoint" />
            <mxPoint x="745" y="640" as="targetPoint" />
          </mxGeometry>
        </mxCell>
        <mxCell id="mxhaj5c7SGz6iYDPT9kv-45" value="" style="endArrow=none;dashed=1;html=1;dashPattern=1 3;strokeWidth=2;rounded=0;entryX=0;entryY=0.5;entryDx=0;entryDy=0;entryPerimeter=0;exitX=1;exitY=0.5;exitDx=0;exitDy=0;" edge="1" parent="1" source="mxhaj5c7SGz6iYDPT9kv-41" target="mxhaj5c7SGz6iYDPT9kv-43">
          <mxGeometry width="50" height="50" relative="1" as="geometry">
            <mxPoint x="945" y="470" as="sourcePoint" />
            <mxPoint x="995" y="420" as="targetPoint" />
          </mxGeometry>
        </mxCell>
        <mxCell id="mxhaj5c7SGz6iYDPT9kv-46" value="Save Changes&amp;nbsp;" style="rounded=1;whiteSpace=wrap;html=1;arcSize=40;fontColor=#000000;fillColor=#ffffc0;strokeColor=#ff0000;" vertex="1" parent="1">
          <mxGeometry x="291.5" y="570" width="120" height="40" as="geometry" />
        </mxCell>
        <mxCell id="mxhaj5c7SGz6iYDPT9kv-47" value="" style="edgeStyle=orthogonalEdgeStyle;html=1;verticalAlign=bottom;endArrow=open;endSize=8;strokeColor=#ff0000;rounded=0;" edge="1" source="mxhaj5c7SGz6iYDPT9kv-46" parent="1" target="mxhaj5c7SGz6iYDPT9kv-54">
          <mxGeometry relative="1" as="geometry">
            <mxPoint x="351.5" y="670" as="targetPoint" />
          </mxGeometry>
        </mxCell>
        <mxCell id="mxhaj5c7SGz6iYDPT9kv-50" value="" style="endArrow=classic;html=1;rounded=0;entryX=0.563;entryY=-0.011;entryDx=0;entryDy=0;entryPerimeter=0;exitX=0.5;exitY=1;exitDx=0;exitDy=0;" edge="1" parent="1" source="mxhaj5c7SGz6iYDPT9kv-25" target="mxhaj5c7SGz6iYDPT9kv-46">
          <mxGeometry width="50" height="50" relative="1" as="geometry">
            <mxPoint x="360" y="480" as="sourcePoint" />
            <mxPoint x="410" y="430" as="targetPoint" />
          </mxGeometry>
        </mxCell>
        <mxCell id="mxhaj5c7SGz6iYDPT9kv-51" value="" style="endArrow=classic;html=1;rounded=0;exitX=0.5;exitY=1;exitDx=0;exitDy=0;entryX=0.5;entryY=0;entryDx=0;entryDy=0;" edge="1" parent="1" source="mxhaj5c7SGz6iYDPT9kv-30" target="mxhaj5c7SGz6iYDPT9kv-46">
          <mxGeometry width="50" height="50" relative="1" as="geometry">
            <mxPoint x="360" y="480" as="sourcePoint" />
            <mxPoint x="410" y="430" as="targetPoint" />
          </mxGeometry>
        </mxCell>
        <mxCell id="mxhaj5c7SGz6iYDPT9kv-52" value="" style="endArrow=classic;html=1;rounded=0;exitX=0.5;exitY=1;exitDx=0;exitDy=0;entryX=0.5;entryY=0;entryDx=0;entryDy=0;" edge="1" parent="1" source="mxhaj5c7SGz6iYDPT9kv-36" target="mxhaj5c7SGz6iYDPT9kv-46">
          <mxGeometry width="50" height="50" relative="1" as="geometry">
            <mxPoint x="360" y="480" as="sourcePoint" />
            <mxPoint x="410" y="430" as="targetPoint" />
          </mxGeometry>
        </mxCell>
        <mxCell id="mxhaj5c7SGz6iYDPT9kv-53" value="" style="endArrow=classic;html=1;rounded=0;exitX=0.5;exitY=1;exitDx=0;exitDy=0;entryX=0.5;entryY=0;entryDx=0;entryDy=0;" edge="1" parent="1" source="mxhaj5c7SGz6iYDPT9kv-41" target="mxhaj5c7SGz6iYDPT9kv-46">
          <mxGeometry width="50" height="50" relative="1" as="geometry">
            <mxPoint x="360" y="480" as="sourcePoint" />
            <mxPoint x="410" y="430" as="targetPoint" />
          </mxGeometry>
        </mxCell>
        <mxCell id="mxhaj5c7SGz6iYDPT9kv-54" value="" style="ellipse;html=1;shape=endState;fillColor=strokeColor;" vertex="1" parent="1">
          <mxGeometry x="336.5" y="660" width="30" height="30" as="geometry" />
        </mxCell>
      </root>
    </mxGraphModel>
  </diagram>
</mxfile>
